# xmcd CD database file
#
# Track frame offsets:
#	187
#	27905
#	49762
#	71252
#	101177
#	117492
#	141122
#	156067
#
# Disc length: 2611 seconds
#
# Revision: 0
# Processed by: cddbd v1.5.2PL0 Copyright (c) Steve Scherf et al.
# Submitted via: CDex 1.75
#
DISCID=6a0a3108
DTITLE=Kitaro - India
DYEAR=1985
DGENRE=New Age
TTITLE0=The Mist
TTITLE1=Caravansary
TTITLE2=Mountain Streams
TTITLE3=Pray
TTITLE4=Ganga
TTITLE5=Sunset
TTITLE6=Linder
TTITLE7=Moon-Star
EXTD=YEAR: 1985
EXTT0=
EXTT1=
EXTT2=
EXTT3=
EXTT4=
EXTT5=
EXTT6=
EXTT7=
PLAYORDER=
